<svg width="158" height="36" viewBox="0 0 158 36" fill="none" xmlns="http://www.w3.org/2000/svg">
<path d="M78.8157 9.01325C72.6537 9.01325 68.2033 13.0692 68.2033 19.1399C68.2033 25.2106 73.2067 29.2666 79.3687 29.2666C83.108 29.2666 86.3733 27.782 88.4273 25.2901L84.1613 22.7982C83.029 24.0442 81.3173 24.7599 79.395 24.7599C76.709 24.7599 74.4443 23.3549 73.6017 21.1016H89.27C89.4017 20.4654 89.4543 19.8292 89.4543 19.1399C89.428 13.0427 85.004 9.01325 78.8157 9.01325ZM73.5227 17.1517C74.2337 14.8984 76.1297 13.4934 78.8157 13.4934C81.5017 13.4934 83.3977 14.8984 84.1087 17.1517H73.5227ZM138.987 9.01325C132.825 9.01325 128.375 13.0692 128.375 19.1399C128.375 25.2106 133.378 29.2666 139.54 29.2666C143.28 29.2666 146.545 27.782 148.599 25.2901L144.333 22.7982C143.201 24.0442 141.489 24.7599 139.567 24.7599C136.881 24.7599 134.616 23.3549 133.773 21.1016H149.442C149.573 20.4654 149.626 19.8292 149.626 19.1399C149.626 13.0427 145.176 9.01325 138.987 9.01325ZM133.721 17.1517C134.432 14.8984 136.328 13.4934 139.014 13.4934C141.7 13.4934 143.596 14.8984 144.307 17.1517H133.721ZM111.917 19.1399C111.917 22.5066 114.102 24.7599 117.499 24.7599C119.79 24.7599 121.528 23.6996 122.424 22.0029L126.716 24.4948C124.952 27.4639 121.607 29.2666 117.499 29.2666C111.311 29.2666 106.887 25.2106 106.887 19.1399C106.887 13.0692 111.337 9.01325 117.499 9.01325C121.607 9.01325 124.925 10.8159 126.716 13.785L122.424 16.2769C121.528 14.5538 119.817 13.5199 117.499 13.5199C114.102 13.4934 111.917 15.7467 111.917 19.1399ZM158 2.81002V28.6834H152.97V2.81002H158ZM20.6453 0L41.2907 36H0L20.6453 0ZM72.285 2.81002L56.801 29.8233L41.317 2.81002H47.1367L56.8273 19.6966L66.518 2.81002H72.285ZM105.202 9.56996V15.0309C104.649 14.8719 104.043 14.7658 103.411 14.7658C100.172 14.7658 97.8283 17.0191 97.8283 20.3859V28.7099H92.7987V9.56996H97.8283V14.7393C97.8283 11.8763 101.12 9.56996 105.202 9.56996Z" fill="#29363D"/>
</svg>
